<svg id="Capa_1" enable-background="new 0 0 512 512" height="512" viewBox="0 0 512 512" width="512" xmlns="http://www.w3.org/2000/svg"><g><path d="m114.98 298.314h282.04c8.29 0 15-6.72 15-15 0-86.03-69.99-156.02-156.02-156.02s-156.02 69.99-156.02 156.02c0 8.279 6.71 15 15 15zm141.02-141.02c64.41 0 117.69 48.58 125.13 111.02h-250.26c7.44-62.44 60.72-111.02 125.13-111.02z"/><path d="m256 91.313c8.284 0 15-6.716 15-15v-34c0-8.284-6.716-15-15-15s-15 6.716-15 15v34c0 8.284 6.716 15 15 15z"/><path d="m139.51 111.546c2.778 4.813 7.82 7.503 13.004 7.503 11.439 0 18.774-12.462 12.977-22.503l-17-29.445c-4.142-7.175-13.317-9.633-20.49-5.49-7.175 4.142-9.633 13.315-5.49 20.49z"/><path d="m39.788 175.803 29.444 17c7.174 4.143 16.348 1.685 20.49-5.49 4.143-7.174 1.685-16.348-5.49-20.49l-29.444-17c-7.175-4.145-16.349-1.686-20.49 5.49-4.143 7.174-1.685 16.348 5.49 20.49z"/><path d="m15 298.313h34c8.284 0 15-6.716 15-15s-6.716-15-15-15h-34c-8.284 0-15 6.716-15 15s6.716 15 15 15z"/><path d="m448 283.313c0 8.284 6.716 15 15 15h34c8.284 0 15-6.716 15-15s-6.716-15-15-15h-34c-8.284 0-15 6.716-15 15z"/><path d="m435.281 194.816c5.304 0 5.099-.634 36.931-19.013 7.175-4.143 9.633-13.316 5.49-20.49-4.142-7.176-13.316-9.634-20.49-5.49l-29.444 17c-13.257 7.654-7.774 27.993 7.513 27.993z"/><path d="m359.486 119.048c5.184 0 10.226-2.691 13.004-7.503l17-29.445c4.143-7.175 1.685-16.349-5.49-20.49-7.175-4.144-16.349-1.684-20.49 5.49l-17 29.445c-5.792 10.031 1.523 22.503 12.976 22.503z"/><path d="m466.88 365.203h-45.09c-13.6-17.77-35.02-29.25-59.08-29.25s-45.48 11.48-59.08 29.25h-258.51c-24.88 0-45.12 20.24-45.12 45.12s20.24 45.12 45.12 45.12h258.51c29.869 39.027 88.346 38.955 118.16 0h45.09c24.88 0 45.12-20.24 45.12-45.12s-20.24-45.12-45.12-45.12zm-177 60.24h-244.76c-8.34 0-15.12-6.78-15.12-15.12s6.78-15.12 15.12-15.12h244.76c-2.053 9.921-2.054 20.314 0 30.24zm114.54 0c-14.12 38.893-69.297 38.901-83.42 0-10.515-28.856 11.026-59.49 41.71-59.49 30.762 0 52.197 30.713 41.71 59.49zm62.46 0h-31.34c2.054-9.922 2.054-20.314 0-30.24h31.34c8.34 0 15.12 6.78 15.12 15.12s-6.78 15.12-15.12 15.12z"/></g></svg>