<?xml version="1.0" encoding="UTF-8" standalone="no"?>
<svg
   height="960"
   viewBox="0 0 960 960"
   width="960"
   version="1.1"
   id="svg4"
   sodipodi:docname="L40.svg"
   inkscape:version="1.1.1 (3bf5ae0d25, 2021-09-20)"
   xmlns:inkscape="http://www.inkscape.org/namespaces/inkscape"
   xmlns:sodipodi="http://sodipodi.sourceforge.net/DTD/sodipodi-0.dtd"
   xmlns="http://www.w3.org/2000/svg"
   xmlns:svg="http://www.w3.org/2000/svg">
  <defs
     id="defs8" />
  <sodipodi:namedview
     id="namedview6"
     pagecolor="#ffffff"
     bordercolor="#cccccc"
     borderopacity="1"
     inkscape:pageshadow="0"
     inkscape:pageopacity="1"
     inkscape:pagecheckerboard="0"
     showgrid="false"
     inkscape:zoom="1.2860505"
     inkscape:cx="362.3497"
     inkscape:cy="450.21562"
     inkscape:window-width="3840"
     inkscape:window-height="2066"
     inkscape:window-x="-11"
     inkscape:window-y="-11"
     inkscape:window-maximized="1"
     inkscape:current-layer="svg4" />
  <path
     d="m 474.45247,117.35954 c 2.53392,0 5.06747,0.0544 7.5989,0.16319 l 1.89815,0.0918 307.50574,16.52322 c 92.9893,4.9966 166.02943,81.13553 167.48093,173.92809 l 0.022,2.81694 v 347.44121 c 0,90.95426 -68.8932,166.93918 -159.08718,176.09161 l -2.73962,0.25684 -307.50574,26.4581 c -32.042,2.75693 -63.62085,-3.18723 -91.90651,-16.82149 l -0.93129,-0.45227 -0.61687,-0.30476 -0.37555,-0.10724 c -1.33136,-0.3974 -2.65894,-0.86876 -3.97855,-1.41672 l -0.79077,-0.33798 -0.78866,-0.35649 -147.19312,-71.10683 c -23.28463,-20.27557 -65.1324,-52.16563 -65.72704,-120.3054 -0.81495,-93.38621 -1.13959,-339.50187 -1.13959,-339.50187 0,0 2.11094,-29.79972 6.07413,-44.09918 3.02525,-10.91531 8.26007,-21.2014 13.35338,-31.24664 4.69509,-9.25986 10.71746,-17.8904 17.41814,-25.82071 6.78598,-8.03127 14.78297,-14.99967 22.83839,-21.75698 6.63427,-5.56517 13.31305,-11.26288 20.91702,-15.40586 8.91205,-4.85568 18.80579,-7.69033 28.46367,-10.80922 41.01696,-13.24593 124.90218,-33.46728 124.90218,-33.46728 1.75043,-0.34567 3.49194,-0.5721 5.21704,-0.68555 l 0.7383,-0.0417 0.41605,-0.0164 0.87919,-0.30164 c 17.4582,-5.9428 35.8565,-9.14134 54.65342,-9.39636 l 1.22645,-0.0125 z m -2.04251,50.21306 -0.20235,0.002 c -68.47978,1.1103 -123.78391,56.4213 -124.88315,124.90377 l -0.0167,2.07922 v 390.15176 c 0,3.6332 0.1559,7.26473 0.46729,10.88456 5.67252,65.94297 60.77561,115.76482 125.68803,116.12096 0.95081,-0.0515 1.90202,-0.11196 2.85384,-0.18247 l 1.42821,-0.11346 315,-26.7473 c 15.73462,-1.33606 30.5972,-5.50256 44.10375,-11.9727 42.34037,-20.4155 71.27801,-63.49392 71.85252,-112.93278 l 0.009,-1.50007 V 311.07127 c 0,-56.66515 -37.21177,-105.0203 -89.03608,-121.21958 -9.49141,-2.94231 -19.47107,-4.80635 -29.79989,-5.4463 l -1.14907,-0.0661 -315,-16.70382 c -0.43828,-0.0233 -0.87667,-0.0442 -1.31515,-0.0629 z m -99.64697,20.69396 -85.57389,16.55021 -1.61916,0.32472 c -50.47212,10.50323 -86.83575,54.66811 -87.55797,106.12834 l -0.011,1.5616 c 0.54983,112.44052 1.09966,142.68756 1.64948,337.32156 10.2305,42.73315 25.47621,64.91422 50.14801,76.59696 l 0.95004,0.43868 108.88959,49.52187 c -17.65153,-21.95959 -29.19291,-49.22249 -31.78906,-79.40276 -0.31537,-3.66614 -0.49296,-7.34266 -0.53243,-11.02176 l -0.008,-1.5769 V 294.55732 c 0,-41.80003 17.44663,-79.52518 45.4552,-106.29076 z m 187.94034,408.60519 v 51.57257 l -108.45074,5.67442 v -52.4035 z m 267.45058,-13.52089 v 49.11355 l -108.45075,6.8205 V 589.10394 Z M 615.38825,278.757 l 50.54907,0.2618 v 108.72007 l -50.54907,0.68779 z"
     id="path2"
     sodipodi:nodetypes="sccsccsccsccccccccscassssscccccccsccccsscccscccsccccccccccccccsccscccccccccccccccccc" />
</svg>
