<?xml version="1.0" encoding="UTF-8" standalone="no"?>
<svg
   xmlns:dc="http://purl.org/dc/elements/1.1/"
   xmlns:cc="http://creativecommons.org/ns#"
   xmlns:rdf="http://www.w3.org/1999/02/22-rdf-syntax-ns#"
   xmlns:svg="http://www.w3.org/2000/svg"
   xmlns="http://www.w3.org/2000/svg"
   xmlns:xlink="http://www.w3.org/1999/xlink"
   xmlns:sodipodi="http://sodipodi.sourceforge.net/DTD/sodipodi-0.dtd"
   xmlns:inkscape="http://www.inkscape.org/namespaces/inkscape"
   preserveAspectRatio="xMidYMid meet"
   viewBox="0 0 1483.2183 805.15631"
   width="1483.2183"
   height="805.15631"
   version="1.1"
   id="svg3940"
   sodipodi:docname="L42_2.svg"
   inkscape:version="0.92.4 (5da689c313, 2019-01-14)">
  <metadata
     id="metadata3946">
    <rdf:RDF>
      <cc:Work
         rdf:about="">
        <dc:format>image/svg+xml</dc:format>
        <dc:type
           rdf:resource="http://purl.org/dc/dcmitype/StillImage" />
        <dc:title />
      </cc:Work>
    </rdf:RDF>
  </metadata>
  <defs
     id="defs3944">
    <marker
       inkscape:stockid="Arrow1Lend"
       orient="auto"
       refY="0.0"
       refX="0.0"
       id="Arrow1Lend"
       style="overflow:visible;"
       inkscape:isstock="true">
      <path
         id="path3410"
         d="M 0.0,0.0 L 5.0,-5.0 L -12.5,0.0 L 5.0,5.0 L 0.0,0.0 z "
         style="fill-rule:evenodd;stroke:#000000;stroke-width:1.0pt;"
         transform="scale(0.8) rotate(180) translate(12.5,0)" />
    </marker>
    <symbol
       id="RightArrow">
      <title
         id="title3318">Right Arrow</title>
      <path
         id="path3320"
         style="stroke:none"
         d="M 63,36 41,58 26,58 42,42 10,42 10,30 42,30 26,14 41,14 z" />
    </symbol>
    <symbol
       class="Directional-Icons"
       id="arrow-right">
      <title
         id="title4703">arrow-right</title>
      <path
         id="path4705"
         d="M1472 576q0 -54 -37 -91l-651 -651q-39 -37 -91 -37q-51 0 -90 37l-75 75q-38 38 -38 91t38 91l293 293h-704q-52 0 -84.5 37.5t-32.5 90.5v128q0 53 32.5 90.5t84.5 37.5h704l-293 294q-38 36 -38 90t38 90l75 75q38 38 90 38q53 0 91 -38l651 -651q37 -35 37 -90z"
         transform="matrix(0.05,0,0,-0.05,0,76.8)" />
    </symbol>
    <symbol
       class="Web-Application-Icons"
       id="share">
      <title
         id="title4718">Share</title>
      <path
         id="path4720"
         d="M1792 896q0 -26 -19 -45l-512 -512q-19 -19 -45 -19t-45 19t-19 45v256h-224q-98 0 -175.5 -6t-154 -21.5t-133 -42.5t-105.5 -69.5t-80 -101t-48.5 -138.5t-17.5 -181q0 -55 5 -123q0 -6 2.5 -23.5t2.5 -26.5q0 -15 -8.5 -25t-23.5 -10q-16 0 -28 17q-7 9 -13 22 t-13.5 30t-10.5 24q-127 285 -127 451q0 199 53 333q162 403 875 403h224v256q0 26 19 45t45 19t45 -19l512 -512q19 -19 19 -45z"
         transform="matrix(0.05,0,0,-0.05,0,76.8)" />
    </symbol>
    <clipPath
       clipPathUnits="userSpaceOnUse"
       id="clipPath3238">
      <path
         inkscape:connector-curvature="0"
         style="fill:#000000;stroke:none;stroke-width:0.26167715;image-rendering:auto"
         d="m 598.84611,140.08397 c -2.53557,-2.62331 -2.20336,-4.20986 3.96165,-18.90264 3.1122,-7.41848 5.65789,-13.7044 5.65789,-13.97019 0,-0.26274 -8.59375,-0.47788 -19.09883,-0.47788 h -19.0989 V 92.837683 78.939506 h 19.25054 c 14.84393,0 19.08432,-0.418332 18.52671,-1.828811 -0.3973,-1.003523 -3.11206,-7.677927 -6.03344,-14.830176 -5.50472,-13.477185 -5.50327,-17.092235 0.008,-18.212353 2.74356,-0.558892 45.45046,42.283516 46.91844,47.063784 -14.22559,17.07712 -31.22936,34.9488 -46.8939,50.70859 -0.82514,0 -2.26541,-0.79166 -3.19882,-1.75653 z"
         id="path3240" />
    </clipPath>
    <clipPath
       clipPathUnits="userSpaceOnUse"
       id="clipPath3242">
      <path
         inkscape:connector-curvature="0"
         style="fill:#000000;stroke:none;stroke-width:0.26167715;image-rendering:auto"
         d="m 198.21059,4.2442776 c -1.26366,-0.6976798 -1.09809,-1.1196289 1.97437,-5.02722431 1.55102,-1.97297199 2.81972,-3.64473559 2.81972,-3.71542189 0,-0.069879 -4.28287,-0.127095 -9.51829,-0.127095 h -9.51832 v -3.695578 -3.6962694 h 9.5939 c 7.39777,0 9.51105,-0.111257 9.23316,-0.486379 -0.19801,-0.266891 -1.55097,-2.041972 -3.00689,-3.944138 -2.74339,-3.584306 -2.74267,-4.545741 0.004,-4.84364 1.3673,-0.14864 22.65114,11.245451 23.38274,12.5167805 -7.0896,4.5417218 -15.56378,9.29475756 -23.37051,13.4861293 -0.41123,0 -1.12902,-0.2105442 -1.5942,-0.4671538 z"
         id="path3244" />
    </clipPath>
    <clipPath
       clipPathUnits="userSpaceOnUse"
       id="clipPath3246">
      <path
         inkscape:connector-curvature="0"
         style="fill:#000000;stroke:none;stroke-width:0.26167715;image-rendering:auto"
         d="m 198.21059,4.2442776 c -1.26366,-0.6976798 -1.09809,-1.1196289 1.97437,-5.02722431 1.55102,-1.97297199 2.81972,-3.64473559 2.81972,-3.71542189 0,-0.069879 -4.28287,-0.127095 -9.51829,-0.127095 h -9.51832 v -3.695578 -3.6962694 h 9.5939 c 7.39777,0 9.51105,-0.111257 9.23316,-0.486379 -0.19801,-0.266891 -1.55097,-2.041972 -3.00689,-3.944138 -2.74339,-3.584306 -2.74267,-4.545741 0.004,-4.84364 1.3673,-0.14864 22.65114,11.245451 23.38274,12.5167805 -7.0896,4.5417218 -15.56378,9.29475756 -23.37051,13.4861293 -0.41123,0 -1.12902,-0.2105442 -1.5942,-0.4671538 z"
         id="path3248" />
    </clipPath>
    <clipPath
       clipPathUnits="userSpaceOnUse"
       id="clipPath3250">
      <path
         inkscape:connector-curvature="0"
         style="fill:#000000;stroke:none;stroke-width:0.26167715;image-rendering:auto"
         d="m 198.21059,4.2442776 c -1.26366,-0.6976798 -1.09809,-1.1196289 1.97437,-5.02722431 1.55102,-1.97297199 2.81972,-3.64473559 2.81972,-3.71542189 0,-0.069879 -4.28287,-0.127095 -9.51829,-0.127095 h -9.51832 v -3.695578 -3.6962694 h 9.5939 c 7.39777,0 9.51105,-0.111257 9.23316,-0.486379 -0.19801,-0.266891 -1.55097,-2.041972 -3.00689,-3.944138 -2.74339,-3.584306 -2.74267,-4.545741 0.004,-4.84364 1.3673,-0.14864 22.65114,11.245451 23.38274,12.5167805 -7.0896,4.5417218 -15.56378,9.29475756 -23.37051,13.4861293 -0.41123,0 -1.12902,-0.2105442 -1.5942,-0.4671538 z"
         id="path3252" />
    </clipPath>
    <clipPath
       clipPathUnits="userSpaceOnUse"
       id="clipPath3254">
      <path
         inkscape:connector-curvature="0"
         style="fill:#000000;stroke:none;stroke-width:0.26167715;image-rendering:auto"
         d="m 198.21059,4.2442776 c -1.26366,-0.6976798 -1.09809,-1.1196289 1.97437,-5.02722431 1.55102,-1.97297199 2.81972,-3.64473559 2.81972,-3.71542189 0,-0.069879 -4.28287,-0.127095 -9.51829,-0.127095 h -9.51832 v -3.695578 -3.6962694 h 9.5939 c 7.39777,0 9.51105,-0.111257 9.23316,-0.486379 -0.19801,-0.266891 -1.55097,-2.041972 -3.00689,-3.944138 -2.74339,-3.584306 -2.74267,-4.545741 0.004,-4.84364 1.3673,-0.14864 22.65114,11.245451 23.38274,12.5167805 -7.0896,4.5417218 -15.56378,9.29475756 -23.37051,13.4861293 -0.41123,0 -1.12902,-0.2105442 -1.5942,-0.4671538 z"
         id="path3256" />
    </clipPath>
    <clipPath
       clipPathUnits="userSpaceOnUse"
       id="clipPath3258">
      <path
         inkscape:connector-curvature="0"
         style="fill:#000000;stroke:none;stroke-width:0.26167715;image-rendering:auto"
         d="m 198.21059,4.2442776 c -1.26366,-0.6976798 -1.09809,-1.1196289 1.97437,-5.02722431 1.55102,-1.97297199 2.81972,-3.64473559 2.81972,-3.71542189 0,-0.069879 -4.28287,-0.127095 -9.51829,-0.127095 h -9.51832 v -3.695578 -3.6962694 h 9.5939 c 7.39777,0 9.51105,-0.111257 9.23316,-0.486379 -0.19801,-0.266891 -1.55097,-2.041972 -3.00689,-3.944138 -2.74339,-3.584306 -2.74267,-4.545741 0.004,-4.84364 1.3673,-0.14864 22.65114,11.245451 23.38274,12.5167805 -7.0896,4.5417218 -15.56378,9.29475756 -23.37051,13.4861293 -0.41123,0 -1.12902,-0.2105442 -1.5942,-0.4671538 z"
         id="path3260" />
    </clipPath>
    <clipPath
       clipPathUnits="userSpaceOnUse"
       id="clipPath3262">
      <path
         inkscape:connector-curvature="0"
         style="fill:#000000;stroke:none;stroke-width:0.26167715;image-rendering:auto"
         d="m 198.21059,4.2442776 c -1.26366,-0.6976798 -1.09809,-1.1196289 1.97437,-5.02722431 1.55102,-1.97297199 2.81972,-3.64473559 2.81972,-3.71542189 0,-0.069879 -4.28287,-0.127095 -9.51829,-0.127095 h -9.51832 v -3.695578 -3.6962694 h 9.5939 c 7.39777,0 9.51105,-0.111257 9.23316,-0.486379 -0.19801,-0.266891 -1.55097,-2.041972 -3.00689,-3.944138 -2.74339,-3.584306 -2.74267,-4.545741 0.004,-4.84364 1.3673,-0.14864 22.65114,11.245451 23.38274,12.5167805 -7.0896,4.5417218 -15.56378,9.29475756 -23.37051,13.4861293 -0.41123,0 -1.12902,-0.2105442 -1.5942,-0.4671538 z"
         id="path3264" />
    </clipPath>
    <clipPath
       clipPathUnits="userSpaceOnUse"
       id="clipPath3266">
      <path
         inkscape:connector-curvature="0"
         style="fill:#000000;stroke:none;stroke-width:0.26167715;image-rendering:auto"
         d="m 196.669,4.2775463 c -1.25383,-0.7031485 -1.08955,-1.1284051 1.95901,-5.06663014 1.53896,-1.98843716 2.79779,-3.67330486 2.79779,-3.74454526 0,-0.070427 -4.24955,-0.1280912 -9.44425,-0.1280912 h -9.4443 v -3.7245458 -3.7252429 h 9.51928 c 7.34024,0 9.43708,-0.112129 9.16135,-0.490191 -0.19646,-0.268983 -1.5389,-2.057978 -2.9835,-3.975054 -2.72205,-3.612401 -2.72133,-4.581373 0.004,-4.881607 1.35668,-0.149805 22.47498,11.333599 23.20089,12.6148931 -7.03446,4.5773221 -15.44273,9.36761453 -23.18875,13.5918403 -0.40803,0 -1.12023,-0.2121945 -1.5818,-0.4708156 z"
         id="path3268" />
    </clipPath>
    <clipPath
       clipPathUnits="userSpaceOnUse"
       id="clipPath3270">
      <path
         inkscape:connector-curvature="0"
         style="fill:#000000;stroke:none;stroke-width:0.26167715;image-rendering:auto"
         d="m 198.21059,4.2442776 c -1.26366,-0.6976798 -1.09809,-1.1196289 1.97437,-5.02722431 1.55102,-1.97297199 2.81972,-3.64473559 2.81972,-3.71542189 0,-0.069879 -4.28287,-0.127095 -9.51829,-0.127095 h -9.51832 v -3.695578 -3.6962694 h 9.5939 c 7.39777,0 9.51105,-0.111257 9.23316,-0.486379 -0.19801,-0.266891 -1.55097,-2.041972 -3.00689,-3.944138 -2.74339,-3.584306 -2.74267,-4.545741 0.004,-4.84364 1.3673,-0.14864 22.65114,11.245451 23.38274,12.5167805 -7.0896,4.5417218 -15.56378,9.29475756 -23.37051,13.4861293 -0.41123,0 -1.12902,-0.2105442 -1.5942,-0.4671538 z"
         id="path3272" />
    </clipPath>
    <clipPath
       clipPathUnits="userSpaceOnUse"
       id="clipPath3274">
      <path
         inkscape:connector-curvature="0"
         style="fill:#000000;stroke:none;stroke-width:0.26167715;image-rendering:auto"
         d="m 198.21059,4.2442776 c -1.26366,-0.6976798 -1.09809,-1.1196289 1.97437,-5.02722431 1.55102,-1.97297199 2.81972,-3.64473559 2.81972,-3.71542189 0,-0.069879 -4.28287,-0.127095 -9.51829,-0.127095 h -9.51832 v -3.695578 -3.6962694 h 9.5939 c 7.39777,0 9.51105,-0.111257 9.23316,-0.486379 -0.19801,-0.266891 -1.55097,-2.041972 -3.00689,-3.944138 -2.74339,-3.584306 -2.74267,-4.545741 0.004,-4.84364 1.3673,-0.14864 22.65114,11.245451 23.38274,12.5167805 -7.0896,4.5417218 -15.56378,9.29475756 -23.37051,13.4861293 -0.41123,0 -1.12902,-0.2105442 -1.5942,-0.4671538 z"
         id="path3276" />
    </clipPath>
    <clipPath
       clipPathUnits="userSpaceOnUse"
       id="clipPath3278">
      <path
         inkscape:connector-curvature="0"
         style="fill:#000000;stroke:none;stroke-width:0.26167715;image-rendering:auto"
         d="m 198.21059,4.2442776 c -1.26366,-0.6976798 -1.09809,-1.1196289 1.97437,-5.02722431 1.55102,-1.97297199 2.81972,-3.64473559 2.81972,-3.71542189 0,-0.069879 -4.28287,-0.127095 -9.51829,-0.127095 h -9.51832 v -3.695578 -3.6962694 h 9.5939 c 7.39777,0 9.51105,-0.111257 9.23316,-0.486379 -0.19801,-0.266891 -1.55097,-2.041972 -3.00689,-3.944138 -2.74339,-3.584306 -2.74267,-4.545741 0.004,-4.84364 1.3673,-0.14864 22.65114,11.245451 23.38274,12.5167805 -7.0896,4.5417218 -15.56378,9.29475756 -23.37051,13.4861293 -0.41123,0 -1.12902,-0.2105442 -1.5942,-0.4671538 z"
         id="path3280" />
    </clipPath>
    <clipPath
       clipPathUnits="userSpaceOnUse"
       id="clipPath3282">
      <path
         inkscape:connector-curvature="0"
         style="fill:#000000;stroke:none;stroke-width:0.26167715;image-rendering:auto"
         d="m 198.21059,4.2442776 c -1.26366,-0.6976798 -1.09809,-1.1196289 1.97437,-5.02722431 1.55102,-1.97297199 2.81972,-3.64473559 2.81972,-3.71542189 0,-0.069879 -4.28287,-0.127095 -9.51829,-0.127095 h -9.51832 v -3.695578 -3.6962694 h 9.5939 c 7.39777,0 9.51105,-0.111257 9.23316,-0.486379 -0.19801,-0.266891 -1.55097,-2.041972 -3.00689,-3.944138 -2.74339,-3.584306 -2.74267,-4.545741 0.004,-4.84364 1.3673,-0.14864 22.65114,11.245451 23.38274,12.5167805 -7.0896,4.5417218 -15.56378,9.29475756 -23.37051,13.4861293 -0.41123,0 -1.12902,-0.2105442 -1.5942,-0.4671538 z"
         id="path3284" />
    </clipPath>
    <clipPath
       clipPathUnits="userSpaceOnUse"
       id="clipPath3286">
      <path
         inkscape:connector-curvature="0"
         style="fill:#000000;stroke:none;stroke-width:0.26167715;image-rendering:auto"
         d="m 198.21059,4.2442776 c -1.26366,-0.6976798 -1.09809,-1.1196289 1.97437,-5.02722431 1.55102,-1.97297199 2.81972,-3.64473559 2.81972,-3.71542189 0,-0.069879 -4.28287,-0.127095 -9.51829,-0.127095 h -9.51832 v -3.695578 -3.6962694 h 9.5939 c 7.39777,0 9.51105,-0.111257 9.23316,-0.486379 -0.19801,-0.266891 -1.55097,-2.041972 -3.00689,-3.944138 -2.74339,-3.584306 -2.74267,-4.545741 0.004,-4.84364 1.3673,-0.14864 22.65114,11.245451 23.38274,12.5167805 -7.0896,4.5417218 -15.56378,9.29475756 -23.37051,13.4861293 -0.41123,0 -1.12902,-0.2105442 -1.5942,-0.4671538 z"
         id="path3288" />
    </clipPath>
    <clipPath
       clipPathUnits="userSpaceOnUse"
       id="clipPath3290">
      <path
         inkscape:connector-curvature="0"
         style="fill:#000000;stroke:none;stroke-width:0.26167715;image-rendering:auto"
         d="m 198.21059,4.2442776 c -1.26366,-0.6976798 -1.09809,-1.1196289 1.97437,-5.02722431 1.55102,-1.97297199 2.81972,-3.64473559 2.81972,-3.71542189 0,-0.069879 -4.28287,-0.127095 -9.51829,-0.127095 h -9.51832 v -3.695578 -3.6962694 h 9.5939 c 7.39777,0 9.51105,-0.111257 9.23316,-0.486379 -0.19801,-0.266891 -1.55097,-2.041972 -3.00689,-3.944138 -2.74339,-3.584306 -2.74267,-4.545741 0.004,-4.84364 1.3673,-0.14864 22.65114,11.245451 23.38274,12.5167805 -7.0896,4.5417218 -15.56378,9.29475756 -23.37051,13.4861293 -0.41123,0 -1.12902,-0.2105442 -1.5942,-0.4671538 z"
         id="path3292" />
    </clipPath>
    <clipPath
       clipPathUnits="userSpaceOnUse"
       id="clipPath3294">
      <path
         inkscape:connector-curvature="0"
         style="fill:#000000;stroke:none;stroke-width:0.26167715;image-rendering:auto"
         d="m 198.21059,4.2442776 c -1.26366,-0.6976798 -1.09809,-1.1196289 1.97437,-5.02722431 1.55102,-1.97297199 2.81972,-3.64473559 2.81972,-3.71542189 0,-0.069879 -4.28287,-0.127095 -9.51829,-0.127095 h -9.51832 v -3.695578 -3.6962694 h 9.5939 c 7.39777,0 9.51105,-0.111257 9.23316,-0.486379 -0.19801,-0.266891 -1.55097,-2.041972 -3.00689,-3.944138 -2.74339,-3.584306 -2.74267,-4.545741 0.004,-4.84364 1.3673,-0.14864 22.65114,11.245451 23.38274,12.5167805 -7.0896,4.5417218 -15.56378,9.29475756 -23.37051,13.4861293 -0.41123,0 -1.12902,-0.2105442 -1.5942,-0.4671538 z"
         id="path3296" />
    </clipPath>
    <clipPath
       clipPathUnits="userSpaceOnUse"
       id="clipPath3298">
      <path
         inkscape:connector-curvature="0"
         style="fill:#000000;stroke:none;stroke-width:0.26167715;image-rendering:auto"
         d="m 198.21059,4.2442776 c -1.26366,-0.6976798 -1.09809,-1.1196289 1.97437,-5.02722431 1.55102,-1.97297199 2.81972,-3.64473559 2.81972,-3.71542189 0,-0.069879 -4.28287,-0.127095 -9.51829,-0.127095 h -9.51832 v -3.695578 -3.6962694 h 9.5939 c 7.39777,0 9.51105,-0.111257 9.23316,-0.486379 -0.19801,-0.266891 -1.55097,-2.041972 -3.00689,-3.944138 -2.74339,-3.584306 -2.74267,-4.545741 0.004,-4.84364 1.3673,-0.14864 22.65114,11.245451 23.38274,12.5167805 -7.0896,4.5417218 -15.56378,9.29475756 -23.37051,13.4861293 -0.41123,0 -1.12902,-0.2105442 -1.5942,-0.4671538 z"
         id="path3300" />
    </clipPath>
    <clipPath
       clipPathUnits="userSpaceOnUse"
       id="clipPath3302">
      <path
         inkscape:connector-curvature="0"
         style="fill:#000000;stroke:none;stroke-width:0.26167715;image-rendering:auto"
         d="m 198.21059,4.2442776 c -1.26366,-0.6976798 -1.09809,-1.1196289 1.97437,-5.02722431 1.55102,-1.97297199 2.81972,-3.64473559 2.81972,-3.71542189 0,-0.069879 -4.28287,-0.127095 -9.51829,-0.127095 h -9.51832 v -3.695578 -3.6962694 h 9.5939 c 7.39777,0 9.51105,-0.111257 9.23316,-0.486379 -0.19801,-0.266891 -1.55097,-2.041972 -3.00689,-3.944138 -2.74339,-3.584306 -2.74267,-4.545741 0.004,-4.84364 1.3673,-0.14864 22.65114,11.245451 23.38274,12.5167805 -7.0896,4.5417218 -15.56378,9.29475756 -23.37051,13.4861293 -0.41123,0 -1.12902,-0.2105442 -1.5942,-0.4671538 z"
         id="path3304" />
    </clipPath>
    <clipPath
       clipPathUnits="userSpaceOnUse"
       id="clipPath3306">
      <path
         inkscape:connector-curvature="0"
         style="fill:#000000;stroke:none;stroke-width:0.26167715;image-rendering:auto"
         d="m 198.21059,4.2442776 c -1.26366,-0.6976798 -1.09809,-1.1196289 1.97437,-5.02722431 1.55102,-1.97297199 2.81972,-3.64473559 2.81972,-3.71542189 0,-0.069879 -4.28287,-0.127095 -9.51829,-0.127095 h -9.51832 v -3.695578 -3.6962694 h 9.5939 c 7.39777,0 9.51105,-0.111257 9.23316,-0.486379 -0.19801,-0.266891 -1.55097,-2.041972 -3.00689,-3.944138 -2.74339,-3.584306 -2.74267,-4.545741 0.004,-4.84364 1.3673,-0.14864 22.65114,11.245451 23.38274,12.5167805 -7.0896,4.5417218 -15.56378,9.29475756 -23.37051,13.4861293 -0.41123,0 -1.12902,-0.2105442 -1.5942,-0.4671538 z"
         id="path3308" />
    </clipPath>
    <clipPath
       clipPathUnits="userSpaceOnUse"
       id="clipPath3310">
      <path
         inkscape:connector-curvature="0"
         style="fill:#000000;stroke:none;stroke-width:0.26167715;image-rendering:auto"
         d="m 198.21059,4.2442776 c -1.26366,-0.6976798 -1.09809,-1.1196289 1.97437,-5.02722431 1.55102,-1.97297199 2.81972,-3.64473559 2.81972,-3.71542189 0,-0.069879 -4.28287,-0.127095 -9.51829,-0.127095 h -9.51832 v -3.695578 -3.6962694 h 9.5939 c 7.39777,0 9.51105,-0.111257 9.23316,-0.486379 -0.19801,-0.266891 -1.55097,-2.041972 -3.00689,-3.944138 -2.74339,-3.584306 -2.74267,-4.545741 0.004,-4.84364 1.3673,-0.14864 22.65114,11.245451 23.38274,12.5167805 -7.0896,4.5417218 -15.56378,9.29475756 -23.37051,13.4861293 -0.41123,0 -1.12902,-0.2105442 -1.5942,-0.4671538 z"
         id="path3312" />
    </clipPath>
    <clipPath
       clipPathUnits="userSpaceOnUse"
       id="clipPath3314">
      <path
         inkscape:connector-curvature="0"
         style="fill:#000000;stroke:none;stroke-width:0.26167715;image-rendering:auto"
         d="m 198.21059,4.2442776 c -1.26366,-0.6976798 -1.09809,-1.1196289 1.97437,-5.02722431 1.55102,-1.97297199 2.81972,-3.64473559 2.81972,-3.71542189 0,-0.069879 -4.28287,-0.127095 -9.51829,-0.127095 h -9.51832 v -3.695578 -3.6962694 h 9.5939 c 7.39777,0 9.51105,-0.111257 9.23316,-0.486379 -0.19801,-0.266891 -1.55097,-2.041972 -3.00689,-3.944138 -2.74339,-3.584306 -2.74267,-4.545741 0.004,-4.84364 1.3673,-0.14864 22.65114,11.245451 23.38274,12.5167805 -7.0896,4.5417218 -15.56378,9.29475756 -23.37051,13.4861293 -0.41123,0 -1.12902,-0.2105442 -1.5942,-0.4671538 z"
         id="path3316" />
    </clipPath>
    <clipPath
       clipPathUnits="userSpaceOnUse"
       id="clipPath3318">
      <path
         inkscape:connector-curvature="0"
         style="fill:#000000;stroke:none;stroke-width:0.26167715;image-rendering:auto"
         d="m 198.21059,4.2442776 c -1.26366,-0.6976798 -1.09809,-1.1196289 1.97437,-5.02722431 1.55102,-1.97297199 2.81972,-3.64473559 2.81972,-3.71542189 0,-0.069879 -4.28287,-0.127095 -9.51829,-0.127095 h -9.51832 v -3.695578 -3.6962694 h 9.5939 c 7.39777,0 9.51105,-0.111257 9.23316,-0.486379 -0.19801,-0.266891 -1.55097,-2.041972 -3.00689,-3.944138 -2.74339,-3.584306 -2.74267,-4.545741 0.004,-4.84364 1.3673,-0.14864 22.65114,11.245451 23.38274,12.5167805 -7.0896,4.5417218 -15.56378,9.29475756 -23.37051,13.4861293 -0.41123,0 -1.12902,-0.2105442 -1.5942,-0.4671538 z"
         id="path3321" />
    </clipPath>
    <clipPath
       clipPathUnits="userSpaceOnUse"
       id="clipPath3323">
      <path
         inkscape:connector-curvature="0"
         style="fill:#000000;stroke:none;stroke-width:0.26167715;image-rendering:auto"
         d="m 2073.9386,-381.13743 c -9.5682,-5.36587 -8.3145,-8.61109 14.9497,-38.66449 11.7441,-15.17417 21.3505,-28.03174 21.3505,-28.57539 0,-0.53744 -32.4293,-0.97749 -72.0711,-0.97749 h -72.0713 v -28.42277 -28.42809 h 72.6436 c 56.0148,0 72.0163,-0.85568 69.9121,-3.74075 -1.4993,-2.05266 -11.7437,-15.70485 -22.7677,-30.33445 -20.7726,-27.56697 -20.7671,-34.96139 0.03,-37.25254 10.353,-1.14319 171.5111,86.48901 177.0507,96.26683 -53.6815,34.93048 -117.8467,71.48618 -176.9581,103.72211 -3.1138,0 -8.5488,-1.6193 -12.0711,-3.59289 z"
         id="path3325" />
    </clipPath>
    <clipPath
       clipPathUnits="userSpaceOnUse"
       id="clipPath3327">
      <path
         inkscape:connector-curvature="0"
         style="fill:#000000;stroke:none;stroke-width:0.26167715;image-rendering:auto"
         d="m 1397.3797,126.00227 c -8.2818,-4.64446 -7.1967,-7.45338 12.9397,-33.466264 10.1652,-13.134087 18.4801,-24.263028 18.4801,-24.733587 0,-0.465185 -28.0693,-0.846072 -62.3815,-0.846072 h -62.3818 V 42.35486 17.748768 h 62.8771 c 48.4839,0 62.3341,-0.740638 60.5128,-3.237827 -1.2977,-1.776691 -10.1648,-13.59341983 -19.7067,-26.256152 -17.9798,-23.860744 -17.975,-30.261025 0.026,-32.244143 8.9611,-0.989494 148.4524,74.861044 153.2472,83.324291 -46.4643,30.234271 -102.0028,61.875263 -153.1671,89.777253 -2.6951,0 -7.3994,-1.4016 -10.4481,-3.10985 z"
         id="path3329" />
    </clipPath>
    <clipPath
       clipPathUnits="userSpaceOnUse"
       id="clipPath3331">
      <path
         inkscape:connector-curvature="0"
         style="fill:#000000;stroke:none;stroke-width:0.26167715;image-rendering:auto"
         d="m 996.12531,80.057746 c -4.67778,-2.623314 -4.0649,-4.209866 7.30869,-18.902639 5.7416,-7.418484 10.4381,-13.704407 10.4381,-13.970191 0,-0.262749 -15.85434,-0.477884 -35.23478,-0.477884 H 943.40245 V 32.811455 18.913278 h 35.51463 c 27.38502,0 35.20802,-0.418332 34.17922,-1.828811 -0.7329,-1.003523 -5.7413,-7.6779267 -11.1309,-14.8301755 -10.1554,-13.4771855 -10.15272,-17.0922355 0.015,-18.2123525 5.0615,-0.558893 83.8499,42.283516 86.5581,47.063783 -26.2443,17.077124 -57.6139,34.948799 -86.5129,50.708587 -1.5222,0 -4.17934,-0.791658 -5.90135,-1.756524 z"
         id="path3333" />
    </clipPath>
    <clipPath
       clipPathUnits="userSpaceOnUse"
       id="clipPath3335">
      <path
         inkscape:connector-curvature="0"
         style="fill:#000000;stroke:none;stroke-width:0.26167715;image-rendering:auto"
         d="m 198.21059,4.2442776 c -1.26366,-0.6976798 -1.09809,-1.1196289 1.97437,-5.02722431 1.55102,-1.97297199 2.81972,-3.64473559 2.81972,-3.71542189 0,-0.069879 -4.28287,-0.127095 -9.51829,-0.127095 h -9.51832 v -3.695578 -3.6962694 h 9.5939 c 7.39777,0 9.51105,-0.111257 9.23316,-0.486379 -0.19801,-0.266891 -1.55097,-2.041972 -3.00689,-3.944138 -2.74339,-3.584306 -2.74267,-4.545741 0.004,-4.84364 1.3673,-0.14864 22.65114,11.245451 23.38274,12.5167805 -7.0896,4.5417218 -15.56378,9.29475756 -23.37051,13.4861293 -0.41123,0 -1.12902,-0.2105442 -1.5942,-0.4671538 z"
         id="path3337" />
    </clipPath>
    <clipPath
       clipPathUnits="userSpaceOnUse"
       id="clipPath3339">
      <path
         inkscape:connector-curvature="0"
         style="fill:#000000;stroke:none;stroke-width:0.26167715;image-rendering:auto"
         d="m 198.21059,4.2442776 c -1.26366,-0.6976798 -1.09809,-1.1196289 1.97437,-5.02722431 1.55102,-1.97297199 2.81972,-3.64473559 2.81972,-3.71542189 0,-0.069879 -4.28287,-0.127095 -9.51829,-0.127095 h -9.51832 v -3.695578 -3.6962694 h 9.5939 c 7.39777,0 9.51105,-0.111257 9.23316,-0.486379 -0.19801,-0.266891 -1.55097,-2.041972 -3.00689,-3.944138 -2.74339,-3.584306 -2.74267,-4.545741 0.004,-4.84364 1.3673,-0.14864 22.65114,11.245451 23.38274,12.5167805 -7.0896,4.5417218 -15.56378,9.29475756 -23.37051,13.4861293 -0.41123,0 -1.12902,-0.2105442 -1.5942,-0.4671538 z"
         id="path3341" />
    </clipPath>
    <clipPath
       clipPathUnits="userSpaceOnUse"
       id="clipPath3343">
      <path
         inkscape:connector-curvature="0"
         style="fill:#000000;stroke:none;stroke-width:0.26167715;image-rendering:auto"
         d="m 198.21059,4.2442776 c -1.26366,-0.6976798 -1.09809,-1.1196289 1.97437,-5.02722431 1.55102,-1.97297199 2.81972,-3.64473559 2.81972,-3.71542189 0,-0.069879 -4.28287,-0.127095 -9.51829,-0.127095 h -9.51832 v -3.695578 -3.6962694 h 9.5939 c 7.39777,0 9.51105,-0.111257 9.23316,-0.486379 -0.19801,-0.266891 -1.55097,-2.041972 -3.00689,-3.944138 -2.74339,-3.584306 -2.74267,-4.545741 0.004,-4.84364 1.3673,-0.14864 22.65114,11.245451 23.38274,12.5167805 -7.0896,4.5417218 -15.56378,9.29475756 -23.37051,13.4861293 -0.41123,0 -1.12902,-0.2105442 -1.5942,-0.4671538 z"
         id="path3345" />
    </clipPath>
    <clipPath
       clipPathUnits="userSpaceOnUse"
       id="clipPath3347">
      <path
         inkscape:connector-curvature="0"
         style="fill:#000000;stroke:none;stroke-width:0.26167715;image-rendering:auto"
         d="m 198.21059,4.2442776 c -1.26366,-0.6976798 -1.09809,-1.1196289 1.97437,-5.02722431 1.55102,-1.97297199 2.81972,-3.64473559 2.81972,-3.71542189 0,-0.069879 -4.28287,-0.127095 -9.51829,-0.127095 h -9.51832 v -3.695578 -3.6962694 h 9.5939 c 7.39777,0 9.51105,-0.111257 9.23316,-0.486379 -0.19801,-0.266891 -1.55097,-2.041972 -3.00689,-3.944138 -2.74339,-3.584306 -2.74267,-4.545741 0.004,-4.84364 1.3673,-0.14864 22.65114,11.245451 23.38274,12.5167805 -7.0896,4.5417218 -15.56378,9.29475756 -23.37051,13.4861293 -0.41123,0 -1.12902,-0.2105442 -1.5942,-0.4671538 z"
         id="path3349" />
    </clipPath>
    <clipPath
       clipPathUnits="userSpaceOnUse"
       id="clipPath3351">
      <path
         inkscape:connector-curvature="0"
         style="fill:#000000;stroke:none;stroke-width:0.26167715;image-rendering:auto"
         d="m 198.21059,4.2442776 c -1.26366,-0.6976798 -1.09809,-1.1196289 1.97437,-5.02722431 1.55102,-1.97297199 2.81972,-3.64473559 2.81972,-3.71542189 0,-0.069879 -4.28287,-0.127095 -9.51829,-0.127095 h -9.51832 v -3.695578 -3.6962694 h 9.5939 c 7.39777,0 9.51105,-0.111257 9.23316,-0.486379 -0.19801,-0.266891 -1.55097,-2.041972 -3.00689,-3.944138 -2.74339,-3.584306 -2.74267,-4.545741 0.004,-4.84364 1.3673,-0.14864 22.65114,11.245451 23.38274,12.5167805 -7.0896,4.5417218 -15.56378,9.29475756 -23.37051,13.4861293 -0.41123,0 -1.12902,-0.2105442 -1.5942,-0.4671538 z"
         id="path3353" />
    </clipPath>
    <clipPath
       clipPathUnits="userSpaceOnUse"
       id="clipPath3355">
      <path
         inkscape:connector-curvature="0"
         style="fill:#000000;stroke:none;stroke-width:0.26167715;image-rendering:auto"
         d="m 198.21059,4.2442776 c -1.26366,-0.6976798 -1.09809,-1.1196289 1.97437,-5.02722431 1.55102,-1.97297199 2.81972,-3.64473559 2.81972,-3.71542189 0,-0.069879 -4.28287,-0.127095 -9.51829,-0.127095 h -9.51832 v -3.695578 -3.6962694 h 9.5939 c 7.39777,0 9.51105,-0.111257 9.23316,-0.486379 -0.19801,-0.266891 -1.55097,-2.041972 -3.00689,-3.944138 -2.74339,-3.584306 -2.74267,-4.545741 0.004,-4.84364 1.3673,-0.14864 22.65114,11.245451 23.38274,12.5167805 -7.0896,4.5417218 -15.56378,9.29475756 -23.37051,13.4861293 -0.41123,0 -1.12902,-0.2105442 -1.5942,-0.4671538 z"
         id="path3357" />
    </clipPath>
    <clipPath
       clipPathUnits="userSpaceOnUse"
       id="clipPath3359">
      <path
         inkscape:connector-curvature="0"
         style="fill:#000000;stroke:none;stroke-width:0.26167715;image-rendering:auto"
         d="m 198.21059,4.2442776 c -1.26366,-0.6976798 -1.09809,-1.1196289 1.97437,-5.02722431 1.55102,-1.97297199 2.81972,-3.64473559 2.81972,-3.71542189 0,-0.069879 -4.28287,-0.127095 -9.51829,-0.127095 h -9.51832 v -3.695578 -3.6962694 h 9.5939 c 7.39777,0 9.51105,-0.111257 9.23316,-0.486379 -0.19801,-0.266891 -1.55097,-2.041972 -3.00689,-3.944138 -2.74339,-3.584306 -2.74267,-4.545741 0.004,-4.84364 1.3673,-0.14864 22.65114,11.245451 23.38274,12.5167805 -7.0896,4.5417218 -15.56378,9.29475756 -23.37051,13.4861293 -0.41123,0 -1.12902,-0.2105442 -1.5942,-0.4671538 z"
         id="path3361" />
    </clipPath>
    <clipPath
       clipPathUnits="userSpaceOnUse"
       id="clipPath3363">
      <path
         inkscape:connector-curvature="0"
         style="fill:#000000;stroke:none;stroke-width:0.26167715;image-rendering:auto"
         d="m 196.669,4.2775463 c -1.25383,-0.7031485 -1.08955,-1.1284051 1.95901,-5.06663014 1.53896,-1.98843716 2.79779,-3.67330486 2.79779,-3.74454526 0,-0.070427 -4.24955,-0.1280912 -9.44425,-0.1280912 h -9.4443 v -3.7245458 -3.7252429 h 9.51928 c 7.34024,0 9.43708,-0.112129 9.16135,-0.490191 -0.19646,-0.268983 -1.5389,-2.057978 -2.9835,-3.975054 -2.72205,-3.612401 -2.72133,-4.581373 0.004,-4.881607 1.35668,-0.149805 22.47498,11.333599 23.20089,12.6148931 -7.03446,4.5773221 -15.44273,9.36761453 -23.18875,13.5918403 -0.40803,0 -1.12023,-0.2121945 -1.5818,-0.4708156 z"
         id="path3365" />
    </clipPath>
    <clipPath
       clipPathUnits="userSpaceOnUse"
       id="clipPath3367">
      <path
         inkscape:connector-curvature="0"
         style="fill:#000000;stroke:none;stroke-width:0.26167715;image-rendering:auto"
         d="m 198.21059,4.2442776 c -1.26366,-0.6976798 -1.09809,-1.1196289 1.97437,-5.02722431 1.55102,-1.97297199 2.81972,-3.64473559 2.81972,-3.71542189 0,-0.069879 -4.28287,-0.127095 -9.51829,-0.127095 h -9.51832 v -3.695578 -3.6962694 h 9.5939 c 7.39777,0 9.51105,-0.111257 9.23316,-0.486379 -0.19801,-0.266891 -1.55097,-2.041972 -3.00689,-3.944138 -2.74339,-3.584306 -2.74267,-4.545741 0.004,-4.84364 1.3673,-0.14864 22.65114,11.245451 23.38274,12.5167805 -7.0896,4.5417218 -15.56378,9.29475756 -23.37051,13.4861293 -0.41123,0 -1.12902,-0.2105442 -1.5942,-0.4671538 z"
         id="path3369" />
    </clipPath>
    <clipPath
       clipPathUnits="userSpaceOnUse"
       id="clipPath3371">
      <path
         inkscape:connector-curvature="0"
         style="fill:#000000;stroke:none;stroke-width:0.26167715;image-rendering:auto"
         d="m 196.669,4.2775463 c -1.25383,-0.7031485 -1.08955,-1.1284051 1.95901,-5.06663014 1.53896,-1.98843716 2.79779,-3.67330486 2.79779,-3.74454526 0,-0.070427 -4.24955,-0.1280912 -9.44425,-0.1280912 h -9.4443 v -3.7245458 -3.7252429 h 9.51928 c 7.34024,0 9.43708,-0.112129 9.16135,-0.490191 -0.19646,-0.268983 -1.5389,-2.057978 -2.9835,-3.975054 -2.72205,-3.612401 -2.72133,-4.581373 0.004,-4.881607 1.35668,-0.149805 22.47498,11.333599 23.20089,12.6148931 -7.03446,4.5773221 -15.44273,9.36761453 -23.18875,13.5918403 -0.40803,0 -1.12023,-0.2121945 -1.5818,-0.4708156 z"
         id="path3373" />
    </clipPath>
    <clipPath
       clipPathUnits="userSpaceOnUse"
       id="clipPath3375">
      <path
         inkscape:connector-curvature="0"
         style="fill:#000000;stroke:none;stroke-width:0.26167715;image-rendering:auto"
         d="m 198.21059,4.2442776 c -1.26366,-0.6976798 -1.09809,-1.1196289 1.97437,-5.02722431 1.55102,-1.97297199 2.81972,-3.64473559 2.81972,-3.71542189 0,-0.069879 -4.28287,-0.127095 -9.51829,-0.127095 h -9.51832 v -3.695578 -3.6962694 h 9.5939 c 7.39777,0 9.51105,-0.111257 9.23316,-0.486379 -0.19801,-0.266891 -1.55097,-2.041972 -3.00689,-3.944138 -2.74339,-3.584306 -2.74267,-4.545741 0.004,-4.84364 1.3673,-0.14864 22.65114,11.245451 23.38274,12.5167805 -7.0896,4.5417218 -15.56378,9.29475756 -23.37051,13.4861293 -0.41123,0 -1.12902,-0.2105442 -1.5942,-0.4671538 z"
         id="path3377" />
    </clipPath>
    <clipPath
       clipPathUnits="userSpaceOnUse"
       id="clipPath3379">
      <path
         inkscape:connector-curvature="0"
         style="fill:#000000;stroke:none;stroke-width:0.26167715;image-rendering:auto"
         d="m 196.669,4.2775463 c -1.25383,-0.7031485 -1.08955,-1.1284051 1.95901,-5.06663014 1.53896,-1.98843716 2.79779,-3.67330486 2.79779,-3.74454526 0,-0.070427 -4.24955,-0.1280912 -9.44425,-0.1280912 h -9.4443 v -3.7245458 -3.7252429 h 9.51928 c 7.34024,0 9.43708,-0.112129 9.16135,-0.490191 -0.19646,-0.268983 -1.5389,-2.057978 -2.9835,-3.975054 -2.72205,-3.612401 -2.72133,-4.581373 0.004,-4.881607 1.35668,-0.149805 22.47498,11.333599 23.20089,12.6148931 -7.03446,4.5773221 -15.44273,9.36761453 -23.18875,13.5918403 -0.40803,0 -1.12023,-0.2121945 -1.5818,-0.4708156 z"
         id="path3381" />
    </clipPath>
    <clipPath
       clipPathUnits="userSpaceOnUse"
       id="clipPath3383">
      <path
         inkscape:connector-curvature="0"
         style="fill:#000000;stroke:none;stroke-width:0.26167715;image-rendering:auto"
         d="m 196.669,4.2775463 c -1.25383,-0.7031485 -1.08955,-1.1284051 1.95901,-5.06663014 1.53896,-1.98843716 2.79779,-3.67330486 2.79779,-3.74454526 0,-0.070427 -4.24955,-0.1280912 -9.44425,-0.1280912 h -9.4443 v -3.7245458 -3.7252429 h 9.51928 c 7.34024,0 9.43708,-0.112129 9.16135,-0.490191 -0.19646,-0.268983 -1.5389,-2.057978 -2.9835,-3.975054 -2.72205,-3.612401 -2.72133,-4.581373 0.004,-4.881607 1.35668,-0.149805 22.47498,11.333599 23.20089,12.6148931 -7.03446,4.5773221 -15.44273,9.36761453 -23.18875,13.5918403 -0.40803,0 -1.12023,-0.2121945 -1.5818,-0.4708156 z"
         id="path3385" />
    </clipPath>
    <clipPath
       clipPathUnits="userSpaceOnUse"
       id="clipPath3387">
      <path
         inkscape:connector-curvature="0"
         style="fill:#000000;stroke:none;stroke-width:0.26167715;image-rendering:auto"
         d="m 198.21059,4.2442776 c -1.26366,-0.6976798 -1.09809,-1.1196289 1.97437,-5.02722431 1.55102,-1.97297199 2.81972,-3.64473559 2.81972,-3.71542189 0,-0.069879 -4.28287,-0.127095 -9.51829,-0.127095 h -9.51832 v -3.695578 -3.6962694 h 9.5939 c 7.39777,0 9.51105,-0.111257 9.23316,-0.486379 -0.19801,-0.266891 -1.55097,-2.041972 -3.00689,-3.944138 -2.74339,-3.584306 -2.74267,-4.545741 0.004,-4.84364 1.3673,-0.14864 22.65114,11.245451 23.38274,12.5167805 -7.0896,4.5417218 -15.56378,9.29475756 -23.37051,13.4861293 -0.41123,0 -1.12902,-0.2105442 -1.5942,-0.4671538 z"
         id="path3389" />
    </clipPath>
    <clipPath
       clipPathUnits="userSpaceOnUse"
       id="clipPath3391">
      <path
         inkscape:connector-curvature="0"
         style="fill:#000000;stroke:none;stroke-width:0.26167715;image-rendering:auto"
         d="m 198.21059,4.2442776 c -1.26366,-0.6976798 -1.09809,-1.1196289 1.97437,-5.02722431 1.55102,-1.97297199 2.81972,-3.64473559 2.81972,-3.71542189 0,-0.069879 -4.28287,-0.127095 -9.51829,-0.127095 h -9.51832 v -3.695578 -3.6962694 h 9.5939 c 7.39777,0 9.51105,-0.111257 9.23316,-0.486379 -0.19801,-0.266891 -1.55097,-2.041972 -3.00689,-3.944138 -2.74339,-3.584306 -2.74267,-4.545741 0.004,-4.84364 1.3673,-0.14864 22.65114,11.245451 23.38274,12.5167805 -7.0896,4.5417218 -15.56378,9.29475756 -23.37051,13.4861293 -0.41123,0 -1.12902,-0.2105442 -1.5942,-0.4671538 z"
         id="path3393" />
    </clipPath>
  </defs>
  <sodipodi:namedview
     pagecolor="#ffffff"
     bordercolor="#666666"
     borderopacity="1"
     objecttolerance="10"
     gridtolerance="10"
     guidetolerance="10"
     inkscape:pageopacity="0"
     inkscape:pageshadow="2"
     inkscape:window-width="1920"
     inkscape:window-height="1137"
     id="namedview3942"
     showgrid="false"
     inkscape:zoom="0.5"
     inkscape:cx="417.9797"
     inkscape:cy="606.95706"
     inkscape:window-x="-8"
     inkscape:window-y="-8"
     inkscape:window-maximized="1"
     inkscape:current-layer="g3936"
     fit-margin-top="0"
     fit-margin-left="0"
     fit-margin-right="0"
     fit-margin-bottom="0" />
  <g
     style="image-rendering:auto"
     id="g3936"
     class="layer"
     transform="matrix(7.5952879,0,0,7.6910215,238.27983,-160.99884)">
    <title
       id="title3929">Layer 1</title>
    <rect
       style="opacity:1;fill:#ffffff;fill-opacity:0;stroke:#000000;stroke-width:3.86116004;stroke-miterlimit:4;stroke-dasharray:none;stroke-opacity:1"
       id="rect5016"
       width="191.42021"
       height="100.82667"
       x="-29.441481"
       y="22.86393"
       ry="14.8276"
       rx="14.827599" />
    <rect
       style="opacity:1;fill:none;fill-opacity:1;stroke:#000000;stroke-width:1.32146978;stroke-linecap:square;stroke-linejoin:miter;stroke-miterlimit:3.9000001;stroke-dasharray:2.64293969, 1.32146984;stroke-dashoffset:13.21469879;stroke-opacity:1"
       id="rect837"
       width="18.695803"
       height="31.987558"
       x="8.2577772"
       y="50.986359"
       rx="0"
       ry="0" />
    <rect
       style="opacity:1;fill:none;fill-opacity:1;stroke:#000000;stroke-width:1.32146978;stroke-linecap:square;stroke-linejoin:miter;stroke-miterlimit:4;stroke-dasharray:2.64293969, 1.32146984;stroke-dashoffset:0;stroke-opacity:1;image-rendering:auto"
       id="rect837-9"
       width="44.512154"
       height="16.127901"
       x="-4.6503987"
       y="83.750336"
       rx="0"
       ry="0" />
    <g
       id="g904">
      <rect
         ry="0"
         rx="0.10190806"
         y="50.985104"
         x="105.0283"
         height="32.507545"
         width="18.695803"
         id="rect837-5"
         style="opacity:1;fill:#000000;fill-opacity:1;stroke:#000000;stroke-width:1.3214699;stroke-linecap:square;stroke-linejoin:miter;stroke-miterlimit:3.9000001;stroke-dasharray:none;stroke-dashoffset:0;stroke-opacity:1;image-rendering:auto" />
      <rect
         ry="0"
         rx="0"
         y="83.749031"
         x="92.251785"
         height="16.127901"
         width="44.512154"
         id="rect837-9-8"
         style="opacity:1;fill:#000000;fill-opacity:1;stroke:#000000;stroke-width:1.3214699;stroke-linecap:square;stroke-linejoin:miter;stroke-miterlimit:3.9000001;stroke-dasharray:none;stroke-dashoffset:0;stroke-opacity:1;image-rendering:auto" />
    </g>
    <g
       id="g900">
      <rect
         rx="6.2359195"
         ry="3.2978201"
         y="34.864563"
         x="40.514618"
         height="15.082725"
         width="19.485765"
         id="rect872"
         style="opacity:1;fill:#ffffff;fill-opacity:1;stroke:#000000;stroke-width:1.3214699;stroke-linecap:square;stroke-linejoin:miter;stroke-miterlimit:3.9000001;stroke-dasharray:none;stroke-dashoffset:0;stroke-opacity:1" />
      <rect
         ry="3.2978194"
         rx="3.2978194"
         y="28.623724"
         x="39.987976"
         height="6.2408385"
         width="20.539051"
         id="rect874"
         style="opacity:1;fill:#ffffff;fill-opacity:1;stroke:#000000;stroke-width:1.3214699;stroke-linecap:square;stroke-linejoin:miter;stroke-miterlimit:3.9000001;stroke-dasharray:none;stroke-dashoffset:0;stroke-opacity:1" />
    </g>
    <g
       id="g896"
       transform="translate(0,-0.26004601)">
      <rect
         rx="6.2359195"
         ry="3.2978201"
         y="35.124611"
         x="74.483047"
         height="15.082725"
         width="19.485765"
         id="rect872-4"
         style="opacity:1;fill:#ffffff;fill-opacity:1;stroke:#000000;stroke-width:1.3214699;stroke-linecap:square;stroke-linejoin:miter;stroke-miterlimit:3.9000001;stroke-dasharray:none;stroke-dashoffset:0;stroke-opacity:1;image-rendering:auto" />
      <rect
         ry="3.2978194"
         rx="3.2978194"
         y="28.88377"
         x="73.956406"
         height="6.2408385"
         width="20.539051"
         id="rect874-0"
         style="opacity:1;fill:#ffffff;fill-opacity:1;stroke:#000000;stroke-width:1.3214699;stroke-linecap:square;stroke-linejoin:miter;stroke-miterlimit:3.9000001;stroke-dasharray:none;stroke-dashoffset:0;stroke-opacity:1;image-rendering:auto" />
    </g>
    <path
       inkscape:connector-curvature="0"
       id="path818"
       d="m -69.248181,-40.411272 -10.309691,-5.850919 v 0.726354 a 6.0572184,5.95407 0 0 1 2.327415,2.445236 h -16.846522 v 0.350383 a 2.7257484,2.6793316 0 0 1 1.332587,2.299289 2.7257484,2.6793316 0 0 1 -1.332587,2.29953 v 0.409456 h 16.845808 a 6.0572184,5.95407 0 0 1 -2.326701,2.444656 v 0.727052 z"
       style="fill:#000000;stroke:none;stroke-width:0.26167718"
       clip-path="url(#clipPath3391)" />
    <path
       inkscape:connector-curvature="0"
       style="fill:#000000;stroke:none;stroke-width:0.26167718"
       d="m -68.128644,-56.085579 -10.300273,-5.850973 1.452756,3.171619 h -15.981284 l 1.558247,2.679354 -1.558247,2.679364 h 15.981284 l -1.452756,3.171619 z"
       id="path875"
       clip-path="url(#clipPath3387)" />
    <text
       id="text830"
       y="-47.99472"
       x="-81.437149"
       style="font-style:normal;font-variant:normal;font-weight:400;font-size:2.09665465px;line-height:125%;font-family:'Times New Roman';text-align:start;letter-spacing:0px;word-spacing:0px;text-anchor:start;fill:#000000;fill-opacity:1;stroke:none;stroke-width:0.13083859"
       xml:space="preserve"
       transform="scale(1.0078385,0.99222246)"
       clip-path="url(#clipPath3383)"><tspan
         id="tspan828"
         y="-113.86444"
         x="-111.84126"
         style="stroke-width:0.13083859"><tspan
           id="tspan826"
           style="font-style:normal;font-variant:normal;font-weight:400;font-size:2.09665465px;font-family:'Times New Roman';fill:#000000;stroke-width:0.13083859"
           dy="0"
           dx="0" /></tspan></text>
    <text
       id="text861"
       y="-33.201622"
       x="-36.767223"
       style="font-style:normal;font-variant:normal;font-weight:400;font-size:2.09665465px;line-height:125%;font-family:'Times New Roman';text-align:start;letter-spacing:0px;word-spacing:0px;text-anchor:start;fill:#000000;fill-opacity:1;stroke:none;stroke-width:0.13083859"
       xml:space="preserve"
       transform="scale(1.0078385,0.99222246)"
       clip-path="url(#clipPath3379)"><tspan
         id="tspan859"
         y="-130.93555"
         x="-70.870621"
         style="stroke-width:0.13083859"><tspan
           id="tspan857"
           style="font-style:normal;font-variant:normal;font-weight:400;font-size:2.09665465px;font-family:'Times New Roman';fill:#000000;stroke-width:0.13083859"
           dy="0"
           dx="0" /></tspan></text>
    <path
       inkscape:connector-curvature="0"
       id="path865"
       d="m -41.988181,-61.936552 v 2.925485 H -60.60978 l 3.103603,2.92549 -3.103603,2.925492 h 18.621599 v 2.92549 l 6.207201,-5.850982 z"
       style="fill:#000000;stroke:none;stroke-width:0.13067771px;stroke-linecap:round;stroke-linejoin:round;stroke-miterlimit:4;stroke-dasharray:none;stroke-opacity:1"
       clip-path="url(#clipPath3375)" />
    <text
       id="text886"
       y="48.339767"
       x="-82.065269"
       style="font-style:normal;font-variant:normal;font-weight:400;font-size:2.09665465px;line-height:125%;font-family:'Times New Roman';text-align:start;letter-spacing:0px;word-spacing:0px;text-anchor:start;fill:#000000;fill-opacity:1;stroke:none;stroke-width:0.13083859"
       xml:space="preserve"
       transform="scale(1.0078385,0.99222246)"
       clip-path="url(#clipPath3371)"><tspan
         id="tspan884"
         y="-37.61351"
         x="-118.10067"
         style="stroke-width:0.13083859"><tspan
           id="tspan882"
           style="font-style:normal;font-variant:normal;font-weight:400;font-size:2.09665465px;font-family:'Times New Roman';fill:#000000;stroke-width:0.13083859"
           dy="0"
           dx="0" /></tspan></text>
    <path
       inkscape:connector-curvature="0"
       id="path890"
       d="m -84.128209,61.584396 c 0,-2.393362 -1.971238,-4.334061 -4.402266,-4.334061 -2.431033,0 -4.402272,1.940699 -4.402272,4.334061 h -4.402269 c 0,-4.786723 3.942476,-8.668117 8.804541,-8.668117 4.86206,0 8.804536,3.881394 8.804536,8.668117 v 0 h 2.201135 l -4.40227,4.334056 -4.402269,-4.334056 z"
       style="fill:#000000;stroke:none;stroke-width:0.13067771px;stroke-linecap:round;stroke-linejoin:round;stroke-miterlimit:4;stroke-dasharray:none;stroke-opacity:1"
       clip-path="url(#clipPath3367)" />
    <text
       id="text922"
       y="1.1250745"
       x="-68.26046"
       style="font-style:normal;font-variant:normal;font-weight:400;font-size:2.09665465px;line-height:125%;font-family:'Times New Roman';text-align:start;letter-spacing:0px;word-spacing:0px;text-anchor:start;fill:#000000;fill-opacity:1;stroke:none;stroke-width:0.13083859"
       xml:space="preserve"
       transform="scale(1.0078385,0.99222246)"
       clip-path="url(#clipPath3363)"><tspan
         id="tspan920"
         y="-58.38335"
         x="-59.48988"
         style="stroke-width:0.13083859"><tspan
           id="tspan918"
           style="font-style:normal;font-variant:normal;font-weight:400;font-size:2.09665465px;font-family:'Times New Roman';fill:#000000;stroke-width:0.13083859"
           dy="0"
           dx="0" /></tspan></text>
    <path
       inkscape:connector-curvature="0"
       style="fill:#000000;stroke-width:0.49450809"
       d="m -15.479559,0.96981292 0.163278,0.19884398 0.163538,0.198839 1.504079,2.5890057 1.12258,1.9322958 h -1.499182 v -0.018527 h -7.39581 -6.867543 -7.003474 v 0.018527 h -1.460487 l -1.498149,-2.1641481 h -1.776727 l 1.473386,2.1641481 h -1.040039 l -1.473386,-2.1641481 h -1.696248 l 1.498148,2.1641481 h -1.34338 l -1.448623,-2.1641481 h -1.621959 l 1.442428,2.1641481 v 2.5039367 l -1.442428,2.1270749 h 1.621959 l 1.448623,-2.1270749 h 1.34338 l -1.498148,2.1270749 h 1.696248 l 1.473386,-2.1270749 h 1.040039 l -1.473386,2.1270749 h 1.776727 l 1.498149,-2.1270749 h 1.460487 v -0.018527 h 7.003474 6.867543 7.39581 v 0.018527 h 1.473131 l -1.297469,2.1024399 -1.714822,2.779471 0.834712,-0.452284 0.834972,-0.452284 4.9935658,-2.5775809 4.993566,-2.5775752 -0.173082,-0.090407 -0.173082,-0.090407 -5.480826,-2.9577387 -5.4808268,-2.957488 -0.132066,-0.074406 z"
       id="path962"
       clip-path="url(#clipPath3359)" />
    <path
       inkscape:connector-curvature="0"
       style="font-style:normal;font-variant:normal;font-weight:normal;font-stretch:normal;font-size:medium;line-height:1;font-family:'Carr Arrows (filled)';-inkscape-font-specification:'Carr Arrows (filled)';font-variant-ligatures:normal;font-variant-caps:normal;font-variant-numeric:normal;font-feature-settings:normal;text-align:center;writing-mode:lr-tb;text-anchor:middle;fill:#000000;fill-opacity:1;stroke:none;stroke-width:0.49450806;stroke-opacity:1;paint-order:normal"
       d="m -90.898335,3.7246493 1.442433,2.1641531 v 2.5039312 l -1.442433,2.1270704 h 1.621964 l 1.448623,-2.1270704 h 1.343376 l -1.498144,2.1270704 h 1.696248 l 1.473386,-2.1270704 h 1.040034 l -1.473386,2.1270704 h 1.776732 l 1.498144,-2.1270704 h 1.46049 v -0.018527 h 7.003478 6.867544 7.395814 v 0.018527 h 1.880676 v 2.1270704 l 6.085447,-3.3861493 -6.085447,-3.4090054 v 2.1641531 h -1.880676 v -0.018527 h -7.395814 -6.867544 -7.003478 v 0.018527 h -1.46049 l -1.498144,-2.1641531 h -1.776732 l 1.473386,2.1641531 h -1.040034 l -1.473386,-2.1641531 h -1.696248 l 1.498144,2.1641531 h -1.343376 l -1.448623,-2.1641531 z"
       id="path894"
       clip-path="url(#clipPath3355)" />
    <path
       inkscape:connector-curvature="0"
       id="path2883"
       d="m -47.679656,41.028359 v 2.959012 h -8.347113 v 5.783933 h 8.347113 v 2.959012 l 5.764052,-5.95916 z m -36.257588,2.959012 v 5.783933 h 1.320681 v -5.783933 z m 3.609689,0 v 5.783933 h 2.988299 v -5.783933 z m 5.277307,0 v 5.783933 h 5.855104 v -5.783933 z m 8.144111,0 v 5.783933 h 8.590358 v -5.783933 z"
       style="font-style:normal;font-variant:normal;font-weight:normal;font-stretch:normal;font-size:medium;line-height:1;font-family:'Carr Arrows (filled)';-inkscape-font-specification:'Carr Arrows (filled)';font-variant-ligatures:normal;font-variant-caps:normal;font-variant-numeric:normal;font-feature-settings:normal;text-align:center;writing-mode:lr-tb;text-anchor:middle;fill:#000000;fill-opacity:1;stroke:none;stroke-width:0.49450809;stroke-opacity:1;paint-order:normal"
       clip-path="url(#clipPath3351)" />
    <path
       inkscape:connector-curvature="0"
       id="path993"
       style="font-style:normal;font-variant:normal;font-weight:normal;font-stretch:normal;font-size:medium;line-height:1;font-family:'Arial Unicode MS';-inkscape-font-specification:'Arial Unicode MS';font-variant-ligatures:normal;font-variant-caps:normal;font-variant-numeric:normal;font-feature-settings:normal;text-align:center;writing-mode:lr-tb;text-anchor:middle;fill:#000000;fill-opacity:1;stroke:none;stroke-width:0.49450809;stroke-opacity:1;paint-order:normal"
       d="m -59.59468,63.629404 -0.03853,-0.123327 q 1.271931,-0.493298 2.784768,-1.413498 -1.050309,-0.711489 -2.514961,-2.324204 -1.45502,-1.612715 -2.659501,-3.813592 l 2.254794,-1.77399 q 2.466785,4.164604 4.84684,5.872183 0.491431,-1.394534 0.79014,-3.130576 l 0.105999,-0.01897 3.228018,7.674631 -0.01927,0.07588 z"
       clip-path="url(#clipPath3347)" />
    <path
       inkscape:connector-curvature="0"
       id="path1005"
       style="font-style:normal;font-variant:normal;font-weight:normal;font-stretch:normal;font-size:medium;line-height:1;font-family:'Arial Unicode MS';-inkscape-font-specification:'Arial Unicode MS';font-variant-ligatures:normal;font-variant-caps:normal;font-variant-numeric:normal;font-feature-settings:normal;text-align:center;writing-mode:lr-tb;text-anchor:middle;fill:#000000;fill-opacity:1;stroke:none;stroke-width:0.49450809;stroke-opacity:1;paint-order:normal"
       d="m -37.412058,19.345028 v 0.597292 q -1.869595,0.975166 -3.206782,1.91376 -1.337186,0.926397 -2.426751,2.30382 h -0.173337 q -0.08665,-0.402258 -0.08665,-0.950782 0,-1.621207 0.718124,-2.815782 h -7.936468 q -1.386722,0.792318 -2.612477,2.864541 h -5.299229 q 0.693356,-2.255071 2.104837,-3.571538 -1.42386,-1.316467 -2.104837,-3.534966 h 5.299229 q 1.188617,2.011277 2.612477,2.86454 h 7.936468 q -0.718124,-1.206762 -0.718124,-2.840166 0,-0.548524 0.08665,-0.926397 h 0.173337 q 0.953366,1.206763 2.600088,2.413525 1.659111,1.206762 3.033445,1.682153 z"
       clip-path="url(#clipPath3343)" />
    <path
       inkscape:connector-curvature="0"
       id="path1007"
       style="font-style:normal;font-variant:normal;font-weight:normal;font-stretch:normal;font-size:medium;line-height:1;font-family:'Arial Unicode MS';-inkscape-font-specification:'Arial Unicode MS';font-variant-ligatures:normal;font-variant-caps:normal;font-variant-numeric:normal;font-feature-settings:normal;text-align:center;writing-mode:lr-tb;text-anchor:middle;fill:#000000;fill-opacity:1;stroke:none;stroke-width:0.49450809;stroke-opacity:1;paint-order:normal"
       d="m -63.955422,32.85216 q -5.497343,1.151919 -8.116005,2.962058 -2.618661,1.810143 -3.157254,2.431815 -0.278574,0.34741 -0.52001,0.34741 -0.352878,0 -0.352878,-0.420548 0,-0.658229 2.395809,-3.144896 1.077171,-1.042215 1.077171,-1.353049 0,-0.164557 -0.148548,-0.310818 -0.148549,-0.164572 -2.321505,-0.164572 -3.027245,0 -7.688838,1.316472 -2.340088,0.676524 -3.510117,0.914219 -1.170044,0.237696 -2.915819,0.237696 -2.117221,0 -3.082966,-0.822801 -0.947176,-0.822786 -0.947176,-1.992981 0,-1.206772 0.965745,-1.992997 0.984328,-0.804504 2.990108,-0.804504 1.764343,0 3.082966,0.255976 1.337191,0.255991 3.417259,0.859362 2.785809,0.895939 4.77302,1.133634 2.005794,0.219414 4.345867,0.219414 1.040034,0 1.040034,-0.493686 0,-0.274257 -1.077171,-1.371314 -2.395809,-2.358673 -2.395809,-3.108335 0,-0.420533 0.352878,-0.420533 0.222868,0 0.612882,0.383971 2.600078,2.450092 5.460176,3.638568 2.860113,1.188477 5.720211,1.700444 z"
       clip-path="url(#clipPath3339)" />
    <path
       inkscape:connector-curvature="0"
       id="path1009"
       style="font-style:normal;font-variant:normal;font-weight:normal;font-stretch:normal;font-size:medium;line-height:1;font-family:'Arial Unicode MS';-inkscape-font-specification:'Arial Unicode MS';font-variant-ligatures:normal;font-variant-caps:normal;font-variant-numeric:normal;font-feature-settings:normal;text-align:center;writing-mode:lr-tb;text-anchor:middle;fill:#000000;fill-opacity:1;stroke:none;stroke-width:0.49450809;stroke-opacity:1;paint-order:normal"
       d="m -37.205219,32.86131 q -4.197284,1.865001 -5.311617,2.596372 -1.101935,0.731372 -2.042922,1.657779 -0.458114,0.438819 -0.804787,0.438819 -0.26001,0 -0.445736,-0.134079 -0.185715,-0.146277 -0.185715,-0.30474 0,-0.280366 0.581925,-1.133629 1.522901,-2.096598 1.522901,-2.462284 0,-0.451016 -0.693356,-0.451016 -0.705735,0 -2.042926,0.255981 -1.337191,0.255981 -2.005784,0.511962 -0.668599,0.243784 -2.104835,0.950782 -1.126702,0.597282 -2.141983,0.987352 -1.015271,0.390061 -2.154353,0.390061 -1.436249,0 -2.327709,-0.938594 -0.891451,-0.950781 -0.891451,-2.364766 0,-1.450556 0.891451,-2.364776 0.90385,-0.926397 2.278183,-0.926397 0.990503,0 1.919111,0.30474 0.928598,0.292543 2.426751,1.048299 1.52291,0.767933 2.265792,1.036112 0.755266,0.255981 2.018163,0.487577 1.275286,0.21941 1.86959,0.21941 0.693356,0 0.693356,-0.451006 0,-0.402258 -1.522901,-2.498865 -0.581925,-0.841077 -0.581925,-1.097058 0,-0.451006 0.631451,-0.451006 0.371441,0 0.804787,0.426632 1.213376,1.194575 2.513415,1.950321 1.312428,0.743569 4.841124,2.316017 z"
       clip-path="url(#clipPath3335)" />
    <use
       id="use10295"
       style="fill:#000000;stroke:#000000;stroke-width:0.48813406"
       xlink:href="#RightArrow"
       transform="matrix(0.27013925,0,0,0.26595356,-70.881958,-17.047365)"
       x="0"
       y="0"
       width="100%"
       height="100%"
       clip-path="url(#clipPath3331)" />
    <use
       style="stroke-width:0.86421913"
       id="use12146"
       xlink:href="#arrow-right"
       transform="matrix(0.15258186,0,0,0.15021767,-15.004204,-14.68349)"
       x="0"
       y="0"
       width="100%"
       height="100%"
       clip-path="url(#clipPath3327)" />
    <use
       style="stroke-width:0.99845606"
       id="use12171"
       xlink:href="#share"
       transform="matrix(0.13206808,0,0,0.13002174,-75.690506,53.800429)"
       x="0"
       y="0"
       width="100%"
       height="100%"
       clip-path="url(#clipPath3323)" />
    <path
       inkscape:connector-curvature="0"
       style="fill:#000000;stroke:none;stroke-width:0.26167718;stroke-dasharray:none"
       stroke-linejoin="null"
       stroke-linecap="null"
       d="m -41.031576,62.942958 0.08772,-0.928864 -1.031843,-0.161613 c -2.612473,-0.409177 -5.173202,-2.144408 -6.599019,-4.471561 -0.255747,-0.41754 -0.426967,-0.819783 -0.380485,-0.893948 0.106774,-0.170022 2.708225,-1.523979 2.928207,-1.523979 0.08971,0 0.305333,0.248998 0.479079,0.55331 0.740951,1.298029 2.658624,2.651844 4.008788,2.830097 l 0.547424,0.07227 -0.09413,-0.802682 c -0.0977,-0.833312 -0.07021,-1.008321 0.158382,-1.008321 0.146118,0 4.509001,3.200107 4.63375,3.398793 0.09467,0.150759 -0.505474,0.709873 -2.653967,2.472869 -0.93322,0.76585 -1.803636,1.392416 -1.93422,1.392416 -0.208926,0 -0.226831,-0.111174 -0.149687,-0.928785 z"
       id="svg_11"
       clip-path="url(#clipPath3318)" />
    <path
       inkscape:connector-curvature="0"
       style="fill:#000000;stroke:none;stroke-width:0.26167718"
       d="m -59.04249,73.30737 -4.089907,-4.030711 h 2.693248 l 4.089891,4.030711 -4.089891,4.030638 h -2.693248 z"
       id="svg_8"
       clip-path="url(#clipPath3314)" />
    <path
       inkscape:connector-curvature="0"
       style="fill:#000000;stroke:none;stroke-width:0.26167718;stroke-dasharray:none"
       stroke-linejoin="null"
       stroke-linecap="null"
       d="m -71.559503,22.16597 c 0.462597,-0.441109 0.904504,-0.949622 1.293964,-1.406088 l -11.669549,-0.20932 -1.60066,1.803764 -5.070705,-0.154876 c 0.635169,-0.821228 1.331535,-1.786118 1.847292,-2.510796 l -1.835258,-2.435904 h 5.410446 l 1.100506,1.522063 h 11.9144 l -1.477664,-1.518687 c 0.456108,-0.478654 1.130821,-1.117309 1.496816,-1.452153 l 4.007026,3.87067 -4.015726,3.930634 z"
       id="svg_10"
       clip-path="url(#clipPath3310)" />
    <path
       inkscape:connector-curvature="0"
       id="path840"
       d="m -12.960499,24.393408 c 0,0 -0.49621,-0.608457 -0.810328,-0.839524 -0.780439,-0.574092 -1.695934,-0.95825 -2.602469,-1.309538 -0.724404,-0.280714 -1.484732,-0.47024 -2.246168,-0.629829 -0.727094,-0.152395 -1.464311,-0.310848 -2.207697,-0.310848 h -5.284134 -3.593507 v -1.599044 -1.599044 h 3.593507 5.284134 c 0.743386,0 1.480603,-0.158454 2.207697,-0.310848 0.761436,-0.159589 1.521764,-0.349115 2.246168,-0.629825 0.906535,-0.351292 1.82203,-0.73545 2.602469,-1.309542 0.314118,-0.231067 0.810328,-0.839524 0.810328,-0.839524 l 6.7610088,4.688783 z"
       style="fill:#000000;stroke:none;stroke-width:0.26167718"
       clip-path="url(#clipPath3306)" />
    <path
       inkscape:connector-curvature="0"
       style="fill:#000000;stroke:none;stroke-width:0.26167718"
       d="m -45.387097,-46.002149 c -0.117965,0.851647 -0.368661,1.703314 -0.486666,2.554985 -5.383714,-0.823631 -11.076266,-1.675705 -16.494733,-2.429019 -0.403312,3.289885 -0.643566,7.761642 0,10.92995 5.418467,-0.753319 11.111019,-1.605393 16.494733,-2.429024 0.118005,0.851671 0.368701,1.703333 0.486666,2.55498 3.604433,-1.804876 7.141734,-3.568329 10.355279,-5.590938 -3.213545,-2.022605 -6.750846,-3.786058 -10.355279,-5.590934 z"
       id="svg_9"
       clip-path="url(#clipPath3302)" />
    <path
       inkscape:connector-curvature="0"
       style="fill:#000000;stroke:none;stroke-width:0.26167718"
       d="m -26.105445,-1.832287 c -0.318686,-0.313954 -0.276931,-0.503829 0.497927,-2.2622511 0.391158,-0.887835 0.711116,-1.640126 0.711116,-1.671936 0,-0.03145 -1.080116,-0.05719 -2.400456,-0.05719 h -2.400466 v -1.663012 -1.663321 h 2.419524 c 1.865676,0 2.398634,-0.05007 2.328547,-0.218869 -0.04993,-0.120104 -0.391142,-0.9188879 -0.758321,-1.7748649 -0.691863,-1.612936 -0.691679,-2.045583 9.99e-4,-2.179637 0.344826,-0.06689 5.712489,5.0604539 5.896991,5.6325509 -1.787958,2.043775 -3.925095,4.182639 -5.893907,6.0687571 -0.103709,0 -0.284733,-0.09475 -0.402049,-0.21022 z"
       id="svg_6"
       clip-path="url(#clipPath3298)" />
    <path
       inkscape:connector-curvature="0"
       style="fill:#000000;stroke:none;stroke-width:0.26167718"
       d="m -48.870615,73.3074 -4.193724,-7.41149 7.540424,7.41149 -7.540424,7.411352 z"
       id="svg_4"
       clip-path="url(#clipPath3294)" />
    <path
       style="fill:#000000;stroke:none;stroke-width:0.13083859"
       id="path2998"
       d=""
       inkscape:connector-curvature="0"
       clip-path="url(#clipPath3290)" />
    <path
       style="fill:#000000;fill-opacity:1;stroke:none;stroke-width:0.26167718;stroke-miterlimit:4;stroke-dasharray:none;stroke-opacity:1"
       id="path3013"
       d="m -31.356539,31.632596 c 0.260117,-1.425469 1.155623,-2.697329 2.232752,-3.171117 0.452229,-0.198917 0.755848,-0.231645 2.042775,-0.2202 1.497585,0.01332 1.57327,0.02728 8.164148,1.506008 3.658902,0.820911 7.21654,1.575337 7.905864,1.676505 1.143852,0.167875 1.2777417,0.168025 1.5329783,0.0017 0.5402705,-0.352009 0.38268,-0.797684 -0.9025473,-2.552448 -0.973668,-1.329384 -0.950706,-1.377376 0.820193,-1.714139 1.0459531,-0.198903 1.1141516,-0.198754 1.9338086,0.0042 1.0698969,0.264926 1.4567468,0.577838 2.3117281,1.869894 0.3667112,0.554176 0.7881866,1.191363 0.936612,1.41597 0.472245,0.714634 1.3821245,1.548834 2.1102816,1.934757 0.3880565,0.205668 0.7055576,0.419643 0.7055576,0.475497 0,0.05585 -0.3213377,0.27186 -0.7140825,0.480016 -0.7489278,0.39693 -1.6009293,1.175874 -2.0850401,1.906249 -0.1576191,0.237802 -0.5866174,0.885783 -0.9533286,1.439959 -0.8233461,1.244247 -1.2207747,1.576967 -2.2233765,1.861357 -0.7570607,0.214743 -0.8273213,0.215841 -1.9223626,0.03003 -1.2714106,-0.215739 -1.5906156,-0.342771 -1.5852456,-0.630868 0.002,-0.108506 0.301387,-0.603758 0.665255,-1.100559 1.2852273,-1.754765 1.4428178,-2.20044 0.9025473,-2.552448 -0.2552366,-0.166299 -0.3891263,-0.166147 -1.5329783,0.0017 -0.689324,0.101166 -4.246962,0.855593 -7.905864,1.676504 -6.590878,1.478728 -6.666563,1.49269 -8.164148,1.506008 -1.286927,0.01145 -1.590546,-0.02128 -2.042775,-0.220203 -1.096517,-0.482312 -1.971542,-1.743717 -2.237196,-3.225054 -0.190868,-1.064328 -0.190373,-1.331764 0.0044,-2.399383 z"
       inkscape:connector-curvature="0"
       clip-path="url(#clipPath3286)" />
    <path
       id="path839"
       d="m -7.4496085,-51.545159 c -0.068497,-0.09508 -0.1572276,-0.214033 -0.1971762,-0.264339 -0.2285543,-0.2878 -0.6215278,-0.825023 -0.6169368,-0.843393 0.00296,-0.01182 0.064572,-0.07329 0.1369219,-0.136583 0.072353,-0.06329 0.1910429,-0.167499 0.2637548,-0.231566 0.3728575,-0.328527 0.6495229,-0.564042 0.8498612,-0.723448 0.1222431,-0.09727 0.22226,-0.183961 0.22226,-0.192653 0,-0.0091 -4.5494254,-0.01582 -10.7355964,-0.01583 l -10.735595,-2.4e-5 0.24307,-0.161954 c 0.303034,-0.201906 0.712672,-0.44416 1.134327,-0.67082 0.566895,-0.304735 1.17534,-0.646264 1.629209,-0.914498 0.08339,-0.04928 0.247202,-0.144546 0.364023,-0.211695 0.116822,-0.06715 0.228132,-0.133681 0.247355,-0.14785 0.0346,-0.0255 0.0346,-0.02602 0,-0.05153 -0.01922,-0.01417 -0.130533,-0.0807 -0.247355,-0.14785 -0.116821,-0.06715 -0.280632,-0.16241 -0.364023,-0.211695 -0.453869,-0.268234 -1.062314,-0.609763 -1.629209,-0.914497 -0.421655,-0.22666 -0.831293,-0.468912 -1.134327,-0.67082 l -0.24307,-0.161954 10.735595,-1.7e-5 c 6.186171,-1.5e-5 10.7355964,-0.0067 10.7355964,-0.01583 0,-0.0087 -0.1000169,-0.09539 -0.22226,-0.192653 -0.2003383,-0.159405 -0.4770037,-0.39492 -0.8498612,-0.723447 -0.072712,-0.06407 -0.1914022,-0.168274 -0.2637548,-0.231566 -0.07235,-0.06329 -0.1339657,-0.124755 -0.1369219,-0.136583 -0.00459,-0.01837 0.3883825,-0.555593 0.6169368,-0.843394 0.039949,-0.05031 0.1286797,-0.169257 0.1971762,-0.264339 0.1192768,-0.165567 0.1273893,-0.17288 0.1917828,-0.17288 0.072545,0 0.075712,0.0024 0.5740232,0.43011 0.2082462,0.178753 0.3247952,0.276595 0.6724529,0.564519 0.1593801,0.131996 0.4340963,0.372888 0.5708149,0.500534 0.044563,0.0416 0.1255861,0.110998 0.1800526,0.154203 0.054465,0.04321 0.1516932,0.12826 0.2160618,0.189008 0.064368,0.06075 0.1742737,0.157854 0.2442327,0.215793 0.069959,0.05794 0.1951996,0.161795 0.2783139,0.230792 0.083114,0.069 0.1963738,0.169804 0.2516914,0.224015 0.055316,0.05421 0.2210657,0.207439 0.3683302,0.340504 0.1472656,0.133065 0.3089594,0.281279 0.3593241,0.329362 0.050362,0.04808 0.1503093,0.135863 0.222104,0.195064 0.071796,0.0592 0.1305378,0.11335 0.1305378,0.12033 0,0.007 0.050639,0.05518 0.1125332,0.107113 0.1680855,0.141039 0.3942126,0.346096 0.6069824,0.550427 0.1043609,0.100221 0.2225083,0.209092 0.2625531,0.241938 0.040042,0.03285 0.1089131,0.09285 0.1530434,0.133339 0.04413,0.04049 0.1085961,0.09896 0.1432562,0.129929 l 0.063018,0.05631 -0.063018,0.05631 c -0.03466,0.03097 -0.099126,0.08944 -0.1432562,0.129929 -0.04413,0.04049 -0.1130012,0.100494 -0.1530434,0.13334 -0.040045,0.03285 -0.1581922,0.141715 -0.2625531,0.241936 -0.2127698,0.204331 -0.4388969,0.409389 -0.6069824,0.550427 -0.061894,0.05193 -0.1125332,0.100135 -0.1125332,0.107115 0,0.007 -0.058742,0.06113 -0.1305378,0.120328 -0.071795,0.0592 -0.1717417,0.14698 -0.222104,0.195066 -0.050365,0.04808 -0.2120585,0.196295 -0.3593241,0.329361 -0.1472645,0.133065 -0.3130139,0.286292 -0.3683302,0.340504 -0.055318,0.05421 -0.1685771,0.155019 -0.2516914,0.224015 -0.083114,0.069 -0.2083548,0.172854 -0.2783139,0.230792 -0.069959,0.05794 -0.1798642,0.155046 -0.2442327,0.215794 -0.064369,0.06075 -0.1615965,0.145801 -0.2160618,0.189006 -0.054467,0.04321 -0.1354893,0.112599 -0.1800526,0.154204 -0.1367186,0.127646 -0.4114348,0.368538 -0.5708149,0.500534 -0.3476577,0.287926 -0.4642067,0.385768 -0.6724529,0.56452 -0.4983114,0.427737 -0.5014785,0.430109 -0.5740232,0.430109 -0.064394,0 -0.072506,-0.0073 -0.1917828,-0.172872 z"
       style="fill:#000000;stroke-width:0.49450809"
       inkscape:connector-curvature="0"
       clip-path="url(#clipPath3282)" />
    <path
       inkscape:connector-curvature="0"
       style="opacity:1;fill:#000000;fill-opacity:1;stroke:none;stroke-width:0.75232196;stroke-miterlimit:4;stroke-dasharray:none"
       d="m -27.287519,-28.638095 2.563206,2.53517 2.56346,2.665699 -2.56346,2.665701 -2.563206,2.535169 h 5.205597 5.205343 v -1.589719 -1.589718 h 6.128265 6.1280098 v 1.494488 1.494234 l 5.067082,-5.010154 c 0,-0.02621 -5.067082,-5.010154 -5.067082,-5.010154 v 1.494234 1.494488 h -6.1280098 -6.128265 v -1.589719 -1.589719 h -5.205343 z"
       id="path1476"
       clip-path="url(#clipPath3278)" />
    <path
       inkscape:connector-curvature="0"
       style="fill:#000000;stroke-width:0.49450809"
       d="m -41.130079,-19.958546 -6.669788,3.282452 h -0.06569 -0.06569 v -2.08035 -2.080348 h -6.867545 -6.867539 v -2.600435 -2.600435 h 6.867539 6.867545 v -2.080348 -2.080347 h 0.06569 0.06569 l 6.669788,3.282449 6.669783,3.282449 v 0.196232 0.196232 z m -0.132106,-6.632374 -6.009487,-2.957329 h -0.06565 -0.06565 v 2.015337 2.015337 h -6.867541 -6.867543 v 2.080348 2.080348 h 6.867543 6.867541 v 2.015337 2.015338 h 0.06565 0.06565 l 6.009487,-2.95733 6.009481,-2.95733 v -0.196363 -0.196364 z m -0.264193,5.787399 -5.217133,2.567166 h -0.06559 -0.0656 v -1.820307 -1.820304 h -6.801507 -6.801505 v -1.560261 -1.560261 h 6.801505 6.801507 v -1.820305 -1.820304 h 0.0656 0.06559 l 5.217133,2.567163 5.217128,2.567164 v 0.06654 0.06654 z"
       id="path1063"
       clip-path="url(#clipPath3274)" />
    <path
       inkscape:connector-curvature="0"
       id="path943"
       d="m -11.42687,-46.002148 v 2.55498 c -5.400503,-0.823631 -11.288659,-1.675705 -16.724022,-2.429019 -0.40457,3.28989 -0.645577,7.761647 0,10.929948 5.435363,-0.753312 11.323519,-1.605386 16.724022,-2.429017 v 2.554978 c 3.6156728,-1.804874 7.4743408,-3.568327 10.6979028,-5.590936 -3.223562,-2.022605 -7.08223,-3.786058 -10.6979028,-5.590934 z"
       style="fill:#000000;stroke:none;stroke-width:0.26167718"
       clip-path="url(#clipPath3270)" />
    <text
       xml:space="preserve"
       style="font-style:normal;font-variant:normal;font-weight:normal;font-stretch:normal;font-size:5.59107924px;line-height:1;font-family:'MS Gothic';-inkscape-font-specification:'MS Gothic';text-align:center;text-anchor:middle;opacity:0.5;fill:#ff3004;fill-opacity:1;stroke:#ff3004;stroke-width:0.26167718;stroke-miterlimit:4;stroke-dasharray:none;stroke-opacity:1"
       x="-85.203033"
       y="95.474335"
       id="text902"
       transform="scale(1.0078385,0.99222246)"
       clip-path="url(#clipPath3266)"><tspan
         id="tspan900"
         x="-84.760773"
         y="95.474335"
         style="font-style:normal;font-variant:normal;font-weight:normal;font-stretch:normal;font-family:'MS Gothic';-inkscape-font-specification:'MS Gothic';stroke-width:0.26167718" /></text>
    <path
       inkscape:connector-curvature="0"
       id="path908"
       d="m -19.231018,41.028359 -0.03684,2.782803 h -4.00165 -2.154263 v 3.189674 3.030189 h 2.155541 4.003072 l 0.09722,2.699291 8.299236,-5.72948 z m -10.787527,2.738786 v 6.224385 h 2.95607 v -6.224385 z"
       style="opacity:1;fill:#000000;fill-opacity:1;stroke:none;stroke-width:0.26167718;stroke-miterlimit:4;stroke-dasharray:none;stroke-opacity:1"
       clip-path="url(#clipPath3262)" />
    <path
       id="path1116"
       style="fill:#000000;stroke:none;stroke-width:0.26167721"
       d="M -42.238995,66.806242 V 79.80842 l 10.565448,-6.501089 z"
       inkscape:connector-curvature="0"
       clip-path="url(#clipPath3258)" />
    <path
       id="rect914"
       d="m -35.465174,73.307331 -3.521815,-2.167028 v 1.083514 h -2.635686 v 2.167028 h 2.635686 v 1.083514 z"
       style="opacity:1;fill:#ffffff;fill-opacity:1;stroke:none;stroke-width:0.26167718;stroke-miterlimit:4;stroke-dasharray:none;stroke-opacity:1"
       inkscape:connector-curvature="0"
       clip-path="url(#clipPath3254)" />
    <path
       inkscape:connector-curvature="0"
       id="path982"
       d="m -82.364797,-3.5723841 1.934416,-1.950316 h -5.300692 -5.300693 v -1.950341 -1.950316 h 5.300693 5.300692 l -1.934416,-1.9503259 -1.934415,-1.950336 h 2.716105 2.716105 l 2.940524,2.925492 2.940527,2.9254859 -2.940527,2.925492 -2.940524,2.9254871 h -2.716105 -2.716105 z"
       style="fill:#000000;stroke-width:0.49450806"
       clip-path="url(#clipPath3250)" />
    <path
       inkscape:connector-curvature="0"
       id="path2840"
       d="m -8.0363702,52.91626 v 3.526076 l -1.014243,-0.207984 -1.9229848,-0.270453 -1.77492,-0.166341 -1.690578,-0.04162 -2.387802,0.104118 -2.958377,0.37432 -2.894919,0.437045 -2.958377,0.37432 -2.387802,0.104117 -1.690318,-0.04162 -1.774921,-0.166341 -1.922984,-0.270454 -1.035392,-0.228805 v 5.949764 l 1.035392,0.207984 1.922984,0.29128 1.774921,0.145509 1.690318,0.04162 2.387802,-0.104118 2.958377,-0.353498 2.894919,-0.457867 2.958377,-0.353499 2.387802,-0.104117 1.690578,0.04167 1.77492,0.145509 1.9229848,0.29128 1.014243,0.207984 v 3.526332 l 10.565443,-6.501088 z"
       style="fill:#000000;fill-opacity:1;fill-rule:nonzero;stroke:none;stroke-width:0.13083859"
       clip-path="url(#clipPath3246)" />
    <path
       inkscape:connector-curvature="0"
       id="path2859"
       d="m -42.865042,-13.324019 -0.03689,2.782768 h -4.001511 -2.154358 v 3.1898519 3.030115 h 2.155651 4.003058 l 0.09725,2.6992221 8.299135,-5.7293371 z"
       style="opacity:1;fill:#000000;fill-opacity:1;stroke:none;stroke-width:0.26167718;stroke-miterlimit:4;stroke-dasharray:none;stroke-opacity:1"
       clip-path="url(#clipPath3242)" />
    <use
       height="100%"
       width="100%"
       y="0"
       x="0"
       transform="matrix(0.49837012,0,0,0.26595356,-100.23642,-33.011554)"
       xlink:href="#RightArrow"
       style="fill:#000000;stroke:#000000;stroke-width:0.35938254"
       id="use2873"
       clip-path="url(#clipPath3238)" />
  </g>
</svg>
